<svg id="レイヤー_1" data-name="レイヤー 1" xmlns="http://www.w3.org/2000/svg" viewBox="0 0 726.885 359.259"><defs><style>.cls-1,.cls-2,.cls-3,.cls-4,.cls-5{stroke:#000;stroke-miterlimit:10;}.cls-2,.cls-3,.cls-4{fill:none;}.cls-2{stroke-width:14px;}.cls-3{stroke-width:10px;}.cls-4{stroke-width:11px;}.cls-5{stroke-width:3px;}</style></defs><title>ロゴ</title><path class="cls-1" d="M191.75,182.489V348.323h-12.2v-89.91h-73.4v89.91h-12.2V182.489h12.2v62.382h73.4V182.489h12.2Z" transform="translate(-1.454 -0.413)"/><path class="cls-1" d="M209.75,234.438c0-27.972,20.8-51.948,49.8-51.948,27.4,0,50,23.977,50,51.948V348.323h-12.2v-89.91h-75.4v89.91h-12.2V234.438Zm87.6,10.434V234.438c0-20.868-17-39.072-37.8-39.072-22.4,0-37.6,18.2-37.6,39.072v10.434h75.4Z" transform="translate(-1.454 -0.413)"/><path class="cls-1" d="M323.549,252.819v-0.444c0-27.972,21-51.5,47-51.5,25.4,0,46.8,23.532,46.8,51.5,0,28.86-21.4,51.948-46.8,51.948-13.8,0-26-6.437-34.4-16.872v61.272h-12.6v-95.9Zm12.2-.222c0.2,21.534,15.6,38.628,34.8,38.628,18.8,0,34.8-17.316,34.8-38.851,0-20.867-16-38.628-34.8-38.628-19.4,0-34.8,17.761-34.8,38.628V252.6Z" transform="translate(-1.454 -0.413)"/><path class="cls-1" d="M474.749,182.489c21,0,38.2,14.43,38.2,37.74,0,24.42-17.6,38.184-38.2,38.184h-31.2v89.91h-12.2V204.69c0-14.43,7-22.2,20-22.2h23.4Zm-31.2,62.382h31.4c14.2,0,26-8.214,26-24.42,0-15.983-11.6-24.42-26-24.42h-17.8c-13,0-13.6,2.886-13.6,17.982v30.857Z" transform="translate(-1.454 -0.413)"/><path class="cls-1" d="M585.747,272.4l-1,1.776v74.147h-12.2v-73.7l-1.2-2.22-51.4-89.91h15.4l43.2,78.811,43.2-78.811h15.4Z" transform="translate(-1.454 -0.413)"/><polygon class="cls-2" points="364.004 75.483 41.839 186.388 75.25 186.388 75.25 352.259 650.758 352.259 650.758 186.388 685.169 186.388 364.004 75.483"/><path class="cls-3" d="M578.548,60.386c0.339,0,16.983-16.417,22.984-23.891,5.63-7.01,6.794-11.664,7.133-16.306S605.949,6.263,594.853,5.47s-14.607,6.906-16.3,10.87c-1.7-3.963-5.209-11.662-16.306-10.87s-14.154,10.078-13.814,14.719,1.5,9.3,7.133,16.306C561.563,43.969,578.207,60.386,578.548,60.386Z" transform="translate(-1.454 -0.413)"/><path class="cls-4" d="M601.428,75.849H555.45m-14.122,62.937,37.112-22.569V75.849" transform="translate(-1.454 -0.413)"/><path class="cls-5" d="M242.48,228.025h-3.234v-18h3.234v18Z" transform="translate(-1.454 -0.413)"/><path class="cls-5" d="M264.192,236.947a6.744,6.744,0,0,0,2.109-4.922h0.984a8.016,8.016,0,0,1-16.031,0h0.984A6.961,6.961,0,0,0,264.192,236.947Z" transform="translate(-1.454 -0.413)"/><path class="cls-5" d="M279.38,228.025h-3.234v-18h3.234v18Z" transform="translate(-1.454 -0.413)"/><path class="cls-5" d="M354.45,257.6h-3.234v-18h3.234v18Z" transform="translate(-1.454 -0.413)"/><path class="cls-5" d="M376.162,266.526a6.742,6.742,0,0,0,2.109-4.922h0.984a8.016,8.016,0,0,1-16.031,0h0.984A6.961,6.961,0,0,0,376.162,266.526Z" transform="translate(-1.454 -0.413)"/><path class="cls-5" d="M391.349,257.6h-3.234v-18h3.234v18Z" transform="translate(-1.454 -0.413)"/><path class="cls-5" d="M453.911,226.025h-3.234v-18h3.234v18Z" transform="translate(-1.454 -0.413)"/><path class="cls-5" d="M475.624,234.947a6.744,6.744,0,0,0,2.109-4.922h0.984a8.016,8.016,0,0,1-16.031,0h0.984A6.961,6.961,0,0,0,475.624,234.947Z" transform="translate(-1.454 -0.413)"/><path class="cls-5" d="M490.811,226.025h-3.234v-18h3.234v18Z" transform="translate(-1.454 -0.413)"/></svg>